<?xml version="1.0" encoding="utf-8"?>
<!-- Generator: Adobe Illustrator 15.1.0, SVG Export Plug-In . SVG Version: 6.00 Build 0)  -->
<!DOCTYPE svg PUBLIC "-//W3C//DTD SVG 1.1//EN" "http://www.w3.org/Graphics/SVG/1.1/DTD/svg11.dtd">
<svg version="1.1" id="Layer_1" xmlns="http://www.w3.org/2000/svg" xmlns:xlink="http://www.w3.org/1999/xlink" x="0px" y="0px"
	 width="128px" height="128px" viewBox="0 0 128 128" enable-background="new 0 0 128 128" xml:space="preserve">
<g>
	<path fill="#FFFFFF" stroke="#020202" stroke-miterlimit="10" d="M6.688,115.26c-0.484,0.838-1.554,1.125-2.39,0.643l-2.424-1.398
		c-0.835-0.484-1.123-1.555-0.641-2.391l11.018-19.09c0.484-0.836,1.554-1.117,2.389-0.641l2.424,1.406
		c0.835,0.477,1.123,1.553,0.64,2.389L6.688,115.26z"/>
	<path fill="#FFFFFF" stroke="#020202" stroke-miterlimit="10" d="M31.506,60.947c3.09,0,5.596,2.504,5.596,5.596
		c0,3.087-2.506,5.594-5.596,5.594c-3.09,0-5.595-2.507-5.595-5.594C25.912,63.452,28.416,60.947,31.506,60.947z"/>
	<path fill="#FFFFFF" stroke="#020202" stroke-miterlimit="10" d="M11.584,91.469c-0.433,0.742-0.176,1.703,0.571,2.141l7.313,4.217
		c0.748,0.436,1.704,0.178,2.137-0.57l11.728-20.316c0.431-0.742,0.172-1.703-0.574-2.133l-7.313-4.225
		c-0.748-0.429-1.705-0.18-2.136,0.57L11.584,91.469z"/>
	<path fill="#FFFFFF" stroke="#020202" stroke-miterlimit="10" d="M33.351,87.199c0,1.271-0.783,2.311-1.749,2.311h-1.849
		c-0.964,0-1.746-1.039-1.746-2.311v-8.738c0-1.279,0.782-2.311,1.748-2.311h1.849c0.964,0,1.747,1.031,1.747,2.311V87.199
		L33.351,87.199z"/>
	<path fill="#FFFFFF" stroke="#020202" stroke-miterlimit="10" d="M30.991,90.119c-1.371-0.016-2.478-0.805-2.47-1.773l0.023-2.795
		c0.006-0.969,1.125-1.74,2.497-1.732l10.426,0.084c1.371,0.01,2.478,0.805,2.467,1.773l-0.022,2.795
		c-0.008,0.969-1.125,1.742-2.496,1.727L30.991,90.119z"/>
	<path fill="#FFFFFF" stroke="#020202" stroke-miterlimit="10" d="M29.248,104.588c0.466,0.469,1.394,0.289,2.079-0.398l1.979-1.977
		c0.683-0.686,0.859-1.615,0.395-2.076L23.099,89.533c-0.466-0.461-1.396-0.289-2.079,0.398l-1.979,1.975
		c-0.682,0.688-0.859,1.617-0.395,2.086L29.248,104.588z"/>
	<path fill="#FFFFFF" stroke="#020202" stroke-miterlimit="10" d="M35.231,114.613c0.08,0.906-0.594,1.709-1.505,1.789l-2.973,0.256
		c-0.912,0.078-1.714-0.586-1.792-1.5l-1.175-13.436c-0.082-0.906,0.594-1.711,1.505-1.789l2.97-0.258
		c0.913-0.078,1.717,0.586,1.794,1.49L35.231,114.613z"/>
	<path fill="#FFFFFF" stroke="#020202" stroke-miterlimit="10" d="M4.449,78.313c-0.482,0.836-0.197,1.904,0.641,2.391l6.662,3.848
		c0.836,0.484,1.907,0.195,2.39-0.639l8.745-15.148c0.48-0.838,0.195-1.907-0.641-2.387l-6.664-3.851
		c-0.833-0.48-1.905-0.195-2.389,0.641L4.449,78.313z"/>
	<polygon fill="#FFFFFF" stroke="#020202" stroke-miterlimit="10" points="30.823,119.01 55.45,61.539 77.203,58.667 82.541,25.418 
		87.877,34.858 89.107,7.766 110.865,58.667 113.738,43.89 126.875,120.234 	"/>
</g>
</svg>
