<?xml version="1.0" encoding="utf-8"?>
<!-- Generator: Adobe Illustrator 15.1.0, SVG Export Plug-In . SVG Version: 6.00 Build 0)  -->
<!DOCTYPE svg PUBLIC "-//W3C//DTD SVG 1.1//EN" "http://www.w3.org/Graphics/SVG/1.1/DTD/svg11.dtd">
<svg version="1.1" id="Layer_1" xmlns="http://www.w3.org/2000/svg" xmlns:xlink="http://www.w3.org/1999/xlink" x="0px" y="0px"
	 width="128px" height="128px" viewBox="0 0 128 128" enable-background="new 0 0 128 128" xml:space="preserve">
<g>
	<circle fill="#010101" cx="31.584" cy="66.547" r="5.611"/>
	<path fill="#010101" d="M11.61,91.536c-0.433,0.749-0.176,1.708,0.573,2.145l7.332,4.23c0.75,0.435,1.709,0.177,2.142-0.573
		l11.758-20.366c0.433-0.751,0.175-1.71-0.575-2.143l-7.332-4.232c-0.75-0.433-1.709-0.177-2.141,0.575L11.61,91.536z"/>
	<path fill="#010101" d="M33.435,87.254c0,1.28-0.785,2.319-1.754,2.319h-1.852c-0.967,0-1.752-1.039-1.752-2.319v-8.757
		c0-1.282,0.785-2.318,1.753-2.318h1.853c0.967,0,1.752,1.036,1.752,2.318V87.254z"/>
	<path fill="#010101" d="M31.067,90.181c-1.374-0.011-2.483-0.806-2.475-1.771l0.023-2.806c0.006-0.968,1.127-1.745,2.501-1.734
		l10.453,0.083c1.375,0.013,2.483,0.805,2.474,1.774l-0.022,2.805c-0.008,0.968-1.128,1.744-2.502,1.733L31.067,90.181z"/>
	<path fill="#010101" d="M6.701,115.389c-0.484,0.841-1.557,1.128-2.396,0.643l-2.429-1.402c-0.838-0.485-1.126-1.556-0.642-2.396
		L12.281,93.1c0.484-0.839,1.557-1.127,2.395-0.642l2.43,1.402c0.839,0.482,1.126,1.558,0.642,2.395L6.701,115.389z"/>
	<path fill="#010101" d="M29.32,104.689c0.466,0.47,1.397,0.289,2.084-0.396l1.984-1.981c0.684-0.686,0.862-1.62,0.396-2.086
		l-10.63-10.629c-0.465-0.466-1.398-0.29-2.083,0.396l-1.984,1.981c-0.685,0.687-0.863,1.619-0.396,2.087L29.32,104.689z"/>
	<path fill="#010101" d="M35.318,114.744c0.08,0.907-0.597,1.708-1.511,1.787l-2.979,0.262c-0.915,0.081-1.72-0.59-1.798-1.5
		l-1.179-13.479c-0.081-0.91,0.598-1.71,1.511-1.791l2.979-0.258c0.914-0.081,1.72,0.59,1.798,1.497L35.318,114.744z"/>
	<path fill="#010101" d="M4.456,78.347c-0.483,0.839-0.197,1.911,0.642,2.395l6.682,3.859c0.837,0.483,1.91,0.195,2.395-0.644
		l8.766-15.185c0.484-0.839,0.198-1.911-0.641-2.396l-6.68-3.858c-0.837-0.482-1.911-0.195-2.396,0.643L4.456,78.347z"/>
	<polygon fill="#010101" points="30.897,119.145 55.59,61.529 77.401,58.65 82.75,25.316 88.103,34.78 89.333,7.618 111.147,58.65 
		114.027,43.835 127.198,120.381 	"/>
</g>
</svg>
