<?xml version="1.0" encoding="utf-8"?>
<!-- Generator: Adobe Illustrator 15.1.0, SVG Export Plug-In . SVG Version: 6.00 Build 0)  -->
<!DOCTYPE svg PUBLIC "-//W3C//DTD SVG 1.1//EN" "http://www.w3.org/Graphics/SVG/1.1/DTD/svg11.dtd">
<svg version="1.1" id="Layer_1" xmlns="http://www.w3.org/2000/svg" xmlns:xlink="http://www.w3.org/1999/xlink" x="0px" y="0px"
	 width="128px" height="128px" viewBox="0 0 128 128" enable-background="new 0 0 128 128" xml:space="preserve">
<path fill="#FFFFFF" stroke="#010101" stroke-miterlimit="10" d="M63.905,1C29.164,1,1,29.166,1,63.906
	c0,34.74,28.164,62.906,62.905,62.906c34.743,0,62.906-28.166,62.906-62.906C126.812,29.166,98.648,1,63.905,1z M13.763,52.688
	c0-3.797,9.797-18.129,21.88-18.129c12.084,0,21.881,14.332,21.881,18.129c0,3.799-9.797-4.375-21.881-4.375
	C23.56,48.313,13.763,56.487,13.763,52.688z M64.819,114.049c-24.172,0-43.763-21.881-43.763-36.467
	c0-14.588,19.591,1.822,43.763,1.822c24.168,0,43.759-16.41,43.759-1.822C108.578,92.168,88.987,114.049,64.819,114.049z
	 M95.813,50.136c-12.081,0-21.88,8.174-21.88,4.376c0-3.798,9.799-18.13,21.88-18.13c12.084,0,21.88,14.332,21.88,18.13
	C117.693,58.31,107.897,50.136,95.813,50.136z"/>
</svg>
