<?xml version="1.0" encoding="utf-8"?>
<!-- Generator: Adobe Illustrator 15.1.0, SVG Export Plug-In . SVG Version: 6.00 Build 0)  -->
<!DOCTYPE svg PUBLIC "-//W3C//DTD SVG 1.1//EN" "http://www.w3.org/Graphics/SVG/1.1/DTD/svg11.dtd">
<svg version="1.1" id="Layer_1" xmlns="http://www.w3.org/2000/svg" xmlns:xlink="http://www.w3.org/1999/xlink" x="0px" y="0px"
	 width="128px" height="128px" viewBox="0 0 128 128" enable-background="new 0 0 128 128" xml:space="preserve">
<path fill="#010101" d="M121.856,75.949c-9.607-15.747-30.158-20.723-45.902-11.117c-14.369,8.765-19.728,26.635-13.265,41.66
	l-9.347,5.702c-0.176-0.062-0.351-0.123-0.54-0.161l-15.284-2.883c-0.059-0.769-0.343-1.524-0.865-2.168l-9.915-12.195
	c-0.58-0.712-1.359-1.148-2.192-1.34c0.005-0.155,0.025-0.312,0.009-0.468l-1.147-14.59c0.221-0.278,0.419-0.576,0.561-0.923
	l4.253-10.238c15.2,2.876,30.853-5.158,37.023-20.012c7.071-17.033-1.002-36.577-18.036-43.654
	C30.174-3.512,10.632,4.564,3.558,21.599c-6.434,15.491-0.31,33.022,13.655,41.398l-4.131,9.948
	c-0.286,0.697-0.347,1.418-0.242,2.104c-0.857,0.789-1.365,1.938-1.268,3.189l1.229,15.667c0.172,2.167,2.063,3.78,4.224,3.609
	l0.42-0.034c-0.996,1.405-0.996,3.343,0.144,4.743l9.91,12.197c1.147,1.411,3.066,1.804,4.648,1.092l-0.114,0.608
	c-0.403,2.127,0.999,4.187,3.132,4.588l15.444,2.911c1.246,0.235,2.454-0.158,3.333-0.938c1.252,0.961,3.008,1.116,4.436,0.245
	l10.769-6.573c10.605,11.172,27.907,13.844,41.586,5.5C126.481,112.248,131.46,91.695,121.856,75.949z M12.811,25.445
	C17.763,13.523,31.442,7.869,43.367,12.82c11.921,4.952,17.576,18.63,12.623,30.558C51.039,55.3,37.359,60.955,25.435,56.001
	C13.512,51.05,7.86,37.369,12.811,25.445z M21.595,65.254c0.919,0.381,1.851,0.697,2.784,0.993L21.118,74.1
	c-0.609-0.295-1.292-0.45-2.015-0.395l-2.145,0.168l3.754-9.041C21.009,64.97,21.287,65.127,21.595,65.254z M16.722,93.598
	l-1.208-15.383l3.321,1.375c0.246,0.105,0.495,0.178,0.746,0.229l1.06,13.468L16.722,93.598z M30.556,111.942l-9.913-12.197
	l3.045-2.478l9.913,12.192L30.556,111.942z M51.345,119.759l-15.443-2.913l0.728-3.862l13.801,2.604
	c-0.148,0.895-0.001,1.843,0.507,2.677l0.527,0.862L51.345,119.759z M56.336,119.573l-0.733-1.199l0.328-1.748
	c0.091-0.479,0.077-0.951-0.001-1.408l8.52-5.194c0.134,0.233,0.243,0.476,0.383,0.71c0.548,0.899,1.143,1.755,1.757,2.58
	L56.336,119.573z M105.521,113.3c-11.023,6.724-25.41,3.239-32.133-7.783c-6.726-11.021-3.24-25.409,7.781-32.132
	c11.023-6.725,25.41-3.236,32.13,7.785C120.025,92.192,116.543,106.573,105.521,113.3z"/>
</svg>
