<?xml version="1.0" encoding="utf-8"?>
<!-- Generator: Adobe Illustrator 15.1.0, SVG Export Plug-In . SVG Version: 6.00 Build 0)  -->
<!DOCTYPE svg PUBLIC "-//W3C//DTD SVG 1.1//EN" "http://www.w3.org/Graphics/SVG/1.1/DTD/svg11.dtd">
<svg version="1.1" id="Layer_1" xmlns="http://www.w3.org/2000/svg" xmlns:xlink="http://www.w3.org/1999/xlink" x="0px" y="0px"
	 width="128px" height="128px" viewBox="0 0 128 128" enable-background="new 0 0 128 128" xml:space="preserve">
<g>
	<path fill="#FFFFFF" stroke="#010101" stroke-miterlimit="10" d="M93.128,43.392c1.898,0.329,3.889,0.365,5.934,0.057
		c10.41-1.567,17.539-11.287,15.971-21.699c-0.342-2.272-1.137-4.614-2.148-6.307l4.471-0.674c0.871,1.715,1.563,4.099,1.902,6.347
		c1.924,12.759-6.799,24.66-19.555,26.583c-2.023,0.303-4.027,0.347-5.904,0.13L93.128,43.392z"/>
	<path fill="#FFFFFF" stroke="#010101" stroke-miterlimit="10" d="M48.883,94.917c0.716,1.789,1.179,3.918,1.299,5.98
		c0.626,10.506-7.238,19.584-17.746,20.215c-2.292,0.135-4.586-0.074-6.449-0.709l0.27,4.514c1.857,0.496,4.173,0.688,6.441,0.551
		c12.881-0.766,22.621-11.953,21.854-24.832c-0.123-2.041-0.588-4.191-1.188-5.982L48.883,94.917z"/>
	<path fill="#FFFFFF" stroke="#010101" stroke-miterlimit="10" d="M27.777,119.784c-7.428-1.922-12.081-8.021-12.526-15.492
		c-0.565-9.48,6.6-17.623,16.079-18.188c7.884-0.469,14.775,4.408,17.221,11.578l6.556-0.393
		c-2.721-10.809-12.85-18.574-24.425-17.887c-13.087,0.779-22.941,12.014-22.162,25.1c0.666,11.18,8.573,20.107,19.652,21.949
		L27.777,119.784z"/>
	<path fill="#FFFFFF" stroke="#010101" stroke-miterlimit="10" d="M41.842,62.274l-23.664,0.863
		c0.286,15.272-7.513,31.03-7.513,31.03c20.502-22.521,42.984-1.313,42.984-1.313L41.842,62.274z M25.227,71.456
		c-1.545,0.092-2.873-1.086-2.965-2.629c-0.091-1.549,1.085-2.879,2.63-2.971c1.547-0.09,2.875,1.09,2.966,2.633
		C27.953,70.036,26.773,71.362,25.227,71.456z M37.044,70.751c-1.544,0.094-2.872-1.084-2.966-2.633
		c-0.09-1.545,1.088-2.871,2.633-2.961c1.546-0.094,2.875,1.084,2.967,2.629C39.768,69.331,38.589,70.657,37.044,70.751z"/>
	<path fill="#FFFFFF" stroke="#010101" stroke-miterlimit="10" d="M112.651,17.324c-3.287-5.963-10.33-9.994-17.734-8.879
		c-9.391,1.413-15.668,10.166-14.254,19.557c1.178,7.811,7.578,13.589,15.1,14.495l0.977,6.494
		c-11.137-0.417-21.023-8.683-22.754-20.151c-1.957-12.962,6.871-25.08,19.836-27.034c11.076-1.67,21.467,4.97,25.434,14.524
		L112.651,17.324z"/>
	<path fill="#FFFFFF" stroke="#010101" stroke-miterlimit="10" d="M91.847,48.259c0,0-25.411-17.589-7.639-42.32
		c0,0-13.794,10.899-28.794,13.79l4.067,23.329L91.847,48.259z M62.659,28.086c-1.529,0.234-2.958-0.821-3.188-2.353
		c-0.232-1.531,0.826-2.959,2.353-3.189c1.533-0.23,2.961,0.823,3.188,2.354C65.244,26.43,64.189,27.856,62.659,28.086z
		 M64.426,39.792c-1.532,0.229-2.961-0.821-3.192-2.355c-0.229-1.527,0.825-2.957,2.354-3.189c1.53-0.23,2.962,0.823,3.19,2.354
		C67.01,38.132,65.951,39.561,64.426,39.792z"/>
	<path fill="#FFFFFF" stroke="#010101" stroke-miterlimit="10" d="M35.173,66.055c-1.347,1.087-3.125,1.642-4.96,1.442l-0.292-0.031
		c-1.857-0.201-3.473-1.15-4.552-2.498c-1.084-1.346-1.652-3.124-1.449-4.971l0.745-6.831c0.201-1.853,1.143-3.467,2.491-4.545
		c1.053-0.85,2.376-1.387,3.79-1.48c0.212-0.042,0.432-0.057,0.66-0.031l0.527,0.059l0.292,0.03l0,0l0,0l-0.454,4.167l0,0
		l-0.292-0.032c-0.716-0.077-1.375,0.137-1.898,0.553c-0.52,0.42-0.87,1.018-0.949,1.735l-0.745,6.833
		c-0.077,0.714,0.137,1.372,0.55,1.891c0.423,0.522,1.022,0.876,1.738,0.956l0.291,0.03c0.717,0.077,1.373-0.135,1.882-0.542
		c0.53-0.431,0.886-1.03,0.967-1.744l0.319-2.945c0.126-1.15,1.162-1.98,2.31-1.854c1.151,0.125,1.983,1.159,1.858,2.312
		l-0.321,2.94c-0.202,1.864-1.157,3.476-2.496,4.555L35.173,66.055z"/>
	<path fill="#FFFFFF" stroke="#010101" stroke-miterlimit="10" d="M58.247,26.335c1.518,0.831,2.713,2.258,3.231,4.033l0.082,0.282
		c0.525,1.792,0.268,3.646-0.565,5.157c-0.828,1.518-2.253,2.723-4.039,3.243l-6.593,1.929c-1.79,0.525-3.641,0.27-5.153-0.56
		c-1.19-0.65-2.188-1.665-2.819-2.936c-0.12-0.176-0.217-0.378-0.28-0.595l-0.149-0.511l-0.084-0.278v-0.001l0,0l4.023-1.179v0.002
		l0.082,0.28c0.205,0.691,0.655,1.217,1.238,1.542c0.586,0.318,1.274,0.414,1.965,0.213l6.596-1.93
		c0.691-0.202,1.216-0.651,1.538-1.231c0.322-0.592,0.419-1.279,0.216-1.972l-0.081-0.278c-0.203-0.693-0.651-1.218-1.221-1.534
		c-0.604-0.326-1.292-0.423-1.983-0.221l-2.842,0.83c-1.109,0.324-2.273-0.315-2.597-1.426c-0.329-1.11,0.313-2.274,1.425-2.598
		l2.84-0.832c1.799-0.527,3.653-0.262,5.164,0.565L58.247,26.335z"/>
	<path fill="#FFFFFF" stroke="#010101" stroke-miterlimit="10" d="M33.608,38.284c0.254,0.028,0.038,0.064,0.786,0.2l0.352-4.264
		c0.001-0.023-0.48-0.083-0.683-0.104l-0.331-0.034c-1.854-0.203-3.651,0.368-4.997,1.45c-1.347,1.081-2.3,2.693-2.502,4.546
		l-0.311,2.808c-0.126,1.151,0.703,2.185,1.854,2.31c1.152,0.124,2.186-0.706,2.309-1.857l0.306-2.808
		c0.078-0.716,0.43-1.313,0.948-1.734c0.522-0.416,1.221-0.627,1.937-0.551L33.608,38.284z"/>
	<path fill="#FFFFFF" stroke="#010101" stroke-miterlimit="10" d="M45.016,32.718c0.071,0.246,0.13,0.599,0.061,0.622l4.068-1.309
		c0.024-0.006-0.047-0.289-0.106-0.487l-0.064-0.226c-0.523-1.791-1.726-3.188-3.238-4.016c-1.513-0.832-3.362-1.072-5.15-0.547
		l-2.711,0.798c-1.11,0.326-1.749,1.494-1.423,2.602c0.324,1.112,1.49,1.751,2.601,1.428l2.712-0.792
		c0.692-0.201,1.378-0.104,1.966,0.215c0.586,0.323,1.018,0.797,1.222,1.487L45.016,32.718z"/>
	<path fill="#FFFFFF" stroke="#010101" stroke-miterlimit="10" d="M37.95,48.344l0.025-0.465c0.063-1.158-0.822-2.129-1.978-2.192
		c-1.156-0.064-2.152,0.629-2.217,1.784l-0.102,1.469h0.02l-0.105,1.236c-0.08,0.714-0.43,1.414-0.961,1.846
		c-0.509,0.405-1.164,0.668-1.883,0.591l-0.288-0.006l-0.452,4.18l0.008-0.228c1.838,0.202,3.524-0.499,4.682-1.7l0.008-0.005
		c1.149-1.194,2.58-2.463,2.783-4.326l0.404-2.31L37.95,48.344z"/>
	<path fill="#FFFFFF" stroke="#010101" stroke-miterlimit="10" d="M41.531,35.709l0.017-0.357c0.064-1.159-0.828-2.075-1.981-2.138
		c-1.157-0.064-2.148,0.834-2.212,1.993l-0.093,1.672l0.021,0.001l-0.116,1.055c-0.078,0.714-0.434,1.326-0.966,1.757
		c-0.509,0.406-1.166,0.625-1.883,0.545l-0.291-0.028l-0.453,4.167l0.406,0.146c1.838,0.201,3.888-0.094,5.078-1.33l0.007-0.008
		c1.184-1.229,2.191-2.944,2.395-4.81l0.217-2.603L41.531,35.709z"/>
</g>
</svg>
