<?xml version="1.0" encoding="utf-8"?>
<!-- Generator: Adobe Illustrator 15.1.0, SVG Export Plug-In . SVG Version: 6.00 Build 0)  -->
<!DOCTYPE svg PUBLIC "-//W3C//DTD SVG 1.1//EN" "http://www.w3.org/Graphics/SVG/1.1/DTD/svg11.dtd">
<svg version="1.1" id="Layer_1" xmlns="http://www.w3.org/2000/svg" xmlns:xlink="http://www.w3.org/1999/xlink" x="0px" y="0px"
	 width="128px" height="128px" viewBox="0 0 128 128" enable-background="new 0 0 128 128" xml:space="preserve">
<g>
	<path fill="#010101" d="M27.515,120.187c-7.482-1.936-12.169-8.08-12.617-15.604c-0.569-9.552,6.648-17.75,16.195-18.319
		c7.942-0.476,14.882,4.44,17.346,11.662l6.604-0.396C52.302,86.644,42.1,78.82,30.441,79.514
		C17.259,80.298,7.335,91.614,8.12,104.794c0.67,11.261,8.635,20.254,19.794,22.109L27.515,120.187z"/>
	<path fill="#010101" d="M48.773,95.14c0.722,1.802,1.188,3.945,1.31,6.024c0.63,10.58-7.291,19.726-17.875,20.36
		c-2.308,0.135-4.619-0.076-6.495-0.714l0.271,4.546c1.871,0.5,4.203,0.692,6.488,0.553c12.975-0.769,22.784-12.037,22.011-25.012
		c-0.123-2.053-0.592-4.22-1.197-6.023L48.773,95.14z"/>
	<path fill="#010101" d="M41.43,62.439l-23.834,0.87c0.287,15.383-7.567,31.254-7.567,31.254
		C30.678,71.88,53.323,93.24,53.323,93.24L41.43,62.439z M24.694,71.688c-1.556,0.092-2.894-1.095-2.986-2.649
		c-0.091-1.56,1.093-2.898,2.649-2.992c1.559-0.09,2.896,1.098,2.988,2.652C27.439,70.258,26.251,71.594,24.694,71.688z
		 M36.598,70.978c-1.556,0.094-2.893-1.092-2.988-2.651c-0.09-1.556,1.096-2.891,2.652-2.984c1.557-0.094,2.896,1.093,2.988,2.649
		C39.34,69.547,38.153,70.885,36.598,70.978z"/>
	<path fill="#010101" d="M113.002,16.985c-3.312-6.006-10.403-10.066-17.86-8.943c-9.46,1.424-15.782,10.24-14.359,19.698
		c1.187,7.867,7.634,13.687,15.21,14.6l0.983,6.541c-11.218-0.42-21.175-8.746-22.919-20.297
		C72.086,15.528,80.978,3.323,94.036,1.355c11.154-1.682,21.622,5.006,25.618,14.629L113.002,16.985z"/>
	<path fill="#010101" d="M93.338,43.241c1.912,0.332,3.916,0.368,5.977,0.058c10.483-1.579,17.666-11.368,16.086-21.855
		c-0.344-2.289-1.146-4.647-2.163-6.353l4.503-0.679c0.876,1.727,1.573,4.128,1.916,6.391c1.936,12.852-6.849,24.839-19.696,26.776
		c-2.04,0.305-4.058,0.349-5.948,0.131L93.338,43.241z"/>
	<path fill="#010101" d="M92.047,48.144c0,0-25.595-17.716-7.692-42.625c0,0-13.895,10.978-29.002,13.89l4.096,23.498L92.047,48.144
		z M62.648,27.826c-1.54,0.236-2.979-0.828-3.21-2.37c-0.234-1.543,0.832-2.981,2.369-3.212c1.543-0.232,2.983,0.829,3.212,2.37
		C65.252,26.157,64.19,27.593,62.648,27.826z M64.428,39.615c-1.542,0.232-2.983-0.827-3.216-2.372
		c-0.23-1.538,0.831-2.978,2.371-3.212c1.542-0.231,2.983,0.83,3.214,2.372C67.03,37.944,65.965,39.383,64.428,39.615z"/>
	<path fill="#010101" d="M34.965,66.069c-1.356,1.092-3.147,1.651-4.996,1.452l-0.294-0.032c-1.87-0.202-3.498-1.159-4.584-2.515
		c-1.09-1.357-1.664-3.147-1.459-5.008l0.751-6.881c0.202-1.866,1.15-3.492,2.509-4.579c1.061-0.856,2.394-1.396,3.817-1.49
		c0.214-0.042,0.435-0.057,0.665-0.032l0.53,0.06l0.294,0.029l0,0l0,0l-0.458,4.198l0,0l-0.294-0.033
		c-0.721-0.078-1.385,0.138-1.912,0.558c-0.523,0.423-0.876,1.024-0.957,1.747l-0.75,6.882c-0.078,0.721,0.139,1.382,0.554,1.906
		c0.426,0.525,1.03,0.883,1.75,0.962l0.293,0.031c0.722,0.077,1.383-0.137,1.895-0.546c0.535-0.434,0.894-1.037,0.975-1.757
		l0.321-2.965c0.126-1.159,1.17-1.996,2.326-1.869c1.16,0.127,1.998,1.168,1.871,2.328l-0.323,2.962
		c-0.203,1.877-1.166,3.5-2.514,4.587L34.965,66.069z"/>
	<path fill="#010101" d="M58.205,26.062c1.529,0.837,2.733,2.274,3.254,4.063l0.082,0.284c0.529,1.805,0.27,3.673-0.568,5.195
		c-0.835,1.528-2.27,2.743-4.067,3.266l-6.642,1.943c-1.802,0.528-3.667,0.271-5.19-0.564c-1.199-0.655-2.204-1.677-2.84-2.958
		c-0.122-0.178-0.219-0.381-0.283-0.599l-0.15-0.515l-0.085-0.28v-0.002l0,0l4.053-1.187v0.002l0.083,0.282
		c0.207,0.696,0.66,1.226,1.247,1.553c0.59,0.319,1.284,0.416,1.979,0.214l6.645-1.943c0.695-0.204,1.226-0.657,1.548-1.241
		c0.324-0.596,0.422-1.288,0.218-1.986l-0.082-0.28c-0.205-0.698-0.656-1.228-1.23-1.544c-0.606-0.328-1.302-0.428-1.997-0.224
		l-2.863,0.836c-1.118,0.326-2.29-0.318-2.615-1.436c-0.331-1.119,0.314-2.291,1.436-2.617l2.859-0.838
		c1.812-0.531,3.68-0.264,5.201,0.569L58.205,26.062z"/>
	<path fill="#010101" d="M33.388,38.097c0.256,0.028,0.039,0.064,0.792,0.201l0.355-4.293c0-0.025-0.483-0.084-0.688-0.105
		l-0.333-0.034c-1.869-0.206-3.678,0.37-5.033,1.46c-1.357,1.088-2.317,2.711-2.52,4.579l-0.313,2.829
		c-0.127,1.16,0.708,2.2,1.868,2.326c1.161,0.125,2.201-0.711,2.326-1.871l0.308-2.829c0.079-0.721,0.433-1.322,0.955-1.747
		c0.525-0.419,1.229-0.632,1.951-0.554L33.388,38.097z"/>
	<path fill="#010101" d="M44.879,32.491c0.071,0.248,0.13,0.604,0.061,0.627l4.097-1.319c0.025-0.006-0.047-0.29-0.107-0.489
		l-0.064-0.229c-0.527-1.803-1.738-3.211-3.261-4.044c-1.524-0.838-3.387-1.08-5.188-0.551l-2.73,0.804
		c-1.119,0.328-1.762,1.504-1.434,2.621c0.326,1.12,1.501,1.764,2.619,1.439l2.731-0.798c0.697-0.203,1.389-0.105,1.98,0.216
		c0.59,0.325,1.024,0.803,1.231,1.498L44.879,32.491z"/>
	<path fill="#010101" d="M37.762,48.23l0.025-0.469c0.063-1.166-0.828-2.144-1.992-2.208s-2.168,0.634-2.233,1.796l-0.102,1.48h0.02
		l-0.106,1.245c-0.08,0.72-0.432,1.424-0.969,1.859c-0.512,0.408-1.172,0.673-1.896,0.595l-0.29-0.006l-0.456,4.212l0.009-0.229
		c1.851,0.203,3.549-0.504,4.715-1.712l0.007-0.005c1.158-1.203,2.599-2.481,2.803-4.358l0.407-2.327L37.762,48.23z"/>
	<path fill="#010101" d="M41.369,35.504l0.017-0.36c0.064-1.167-0.833-2.09-1.996-2.152c-1.166-0.064-2.164,0.841-2.228,2.007
		l-0.094,1.685l0.021,0l-0.116,1.063c-0.079,0.719-0.438,1.334-0.973,1.769c-0.513,0.41-1.175,0.629-1.897,0.55l-0.293-0.028
		l-0.456,4.197l0.409,0.146c1.851,0.203,3.916-0.094,5.114-1.339l0.007-0.009c1.192-1.237,2.207-2.964,2.412-4.845l0.219-2.621
		L41.369,35.504z"/>
</g>
</svg>
