<?xml version="1.0" encoding="utf-8"?>
<!-- Generator: Adobe Illustrator 15.1.0, SVG Export Plug-In . SVG Version: 6.00 Build 0)  -->
<!DOCTYPE svg PUBLIC "-//W3C//DTD SVG 1.1//EN" "http://www.w3.org/Graphics/SVG/1.1/DTD/svg11.dtd">
<svg version="1.1" id="Layer_1" xmlns="http://www.w3.org/2000/svg" xmlns:xlink="http://www.w3.org/1999/xlink" x="0px" y="0px"
	 width="128px" height="128px" viewBox="0 0 128 128" enable-background="new 0 0 128 128" xml:space="preserve">
<path fill="#010101" d="M105.377,8.864C80.221-1.38,42.925-2.452,18.897,10.649c-2.847,1.552-5.053,4.86-4.97,7.941l0.683,25.46
	C18.179,91.112,38.93,127.226,64,127.226c25.072,0,45.825-36.113,49.39-83.173c0,0,0.683-25.415,0.683-25.463
	C114.197,13.941,110.442,10.925,105.377,8.864z M58.059,58.027c0,0-18.139,13.855-32.25,0
	C25.809,58.027,39.919,42.656,58.059,58.027z M35.995,79.698c0,0,25.46,39.253,60.469,0C96.464,79.698,65.698,143.349,35.995,79.698
	z M71.639,58.027c0,0,14.109-15.371,32.253,0C103.892,58.027,85.75,71.883,71.639,58.027z"/>
</svg>
