<?xml version="1.0" encoding="utf-8"?>
<!-- Generator: Adobe Illustrator 15.1.0, SVG Export Plug-In . SVG Version: 6.00 Build 0)  -->
<!DOCTYPE svg PUBLIC "-//W3C//DTD SVG 1.1//EN" "http://www.w3.org/Graphics/SVG/1.1/DTD/svg11.dtd">
<svg version="1.1" id="Layer_1" xmlns="http://www.w3.org/2000/svg" xmlns:xlink="http://www.w3.org/1999/xlink" x="0px" y="0px"
	 width="128px" height="128px" viewBox="0 0 128 128" enable-background="new 0 0 128 128" xml:space="preserve">
<path fill="#FFFFFF" stroke="#010101" stroke-miterlimit="10" d="M105.233,8.944C80.165-1.265,42.999-2.333,19.055,10.723
	c-2.837,1.547-5.036,4.843-4.953,7.914l0.68,25.372C18.339,90.906,39.019,126.893,64,126.893c24.985,0,45.665-35.986,49.22-82.883
	c0,0,0.678-25.326,0.678-25.375C114.022,14.003,110.282,10.998,105.233,8.944z M58.08,57.936c0,0-18.076,13.807-32.138,0
	C25.942,57.936,40.004,42.618,58.08,57.936z M36.093,79.531c0,0,25.372,39.115,60.257,0C96.351,79.531,65.692,142.961,36.093,79.531
	z M71.612,57.936c0,0,14.061-15.317,32.143,0C103.755,57.936,85.677,71.742,71.612,57.936z"/>
</svg>
