<?xml version="1.0" encoding="utf-8"?>
<!-- Generator: Adobe Illustrator 18.1.1, SVG Export Plug-In . SVG Version: 6.00 Build 0)  -->
<svg version="1.1" id="Layer_1" xmlns="http://www.w3.org/2000/svg" xmlns:xlink="http://www.w3.org/1999/xlink" x="0px" y="0px"
	 viewBox="-301.1 347 100 100" enable-background="new -301.1 347 100 100" xml:space="preserve">
<path d="M-247.4,381.9c4.2,0,6-3,6-7c0-4-1.9-7.6-6-7.6c-4.2,0-6.3,3.3-6.3,7.3C-253.6,378.6-251.5,381.9-247.4,381.9 M-263.3,385.6
	c1.1-1.4,2.9-2.3,5.4-2.4v0c0-2.4,0-4.9,0-8.3c0-9,5.4-11.8,10.7-11.7c5.2,0.1,10.2,2.8,10.2,11.7v8.3c0,0,0,0,0,0v0
	c5,0.2,7.1,3.4,7.1,7.6v24.8c0,0,0,3.3-3.7,3.3l-1.8,0v27.6H-260v-51.6c0,0-2.4,2.4-3.5,3.5c-2.8,2.8-5.8,3.1-8.6,0.3
	c-4-4-6.4-6.4-7.4-7.4c-2-2-2.1-4.5-0.3-6.3c1.8-1.8,4.2-2.1,6.5,0.1c0.9,0.9,1,1,5.3,5.2L-263.3,385.6
	C-263.3,385.6-263.3,385.6-263.3,385.6z"/>
<g>
	<path d="M-275.1,446.5v-98.2c2.6-0.9,13-1.8,15.9-1.8c14.2,0,26.8,3.5,31.8,11.9c-12.4-6-33.8-5.5-42.3-2.4v90.5H-275.1z"/>
</g>
</svg>
