<?xml version="1.0" encoding="utf-8"?>
<!-- Generator: Adobe Illustrator 15.1.0, SVG Export Plug-In . SVG Version: 6.00 Build 0)  -->
<!DOCTYPE svg PUBLIC "-//W3C//DTD SVG 1.1//EN" "http://www.w3.org/Graphics/SVG/1.1/DTD/svg11.dtd">
<svg version="1.1" id="Layer_1" xmlns="http://www.w3.org/2000/svg" xmlns:xlink="http://www.w3.org/1999/xlink" x="0px" y="0px"
	 width="128px" height="128px" viewBox="0 0 128 128" enable-background="new 0 0 128 128" xml:space="preserve">
<path fill="#010101" d="M99.92,47.75c-0.476-5.964-7.015-6.751-7.384-12.181c-0.392-5.806,1.2-12.525-0.002-18.195
	C87.266-7.443,49.33,3.192,49.33,3.192c-6.129,3.543-9.159,11.248-11.137,17.744c-1.474,4.843-1.487,12.524-4.181,17.275
	c-0.439,0.777-0.951,1.474-1.552,2.067c-1.362,1.349-3.056,1.678-3.898,3.583c-1.31,2.958,0.125,7.433,1.402,10.141
	c1.559,3.304,3.856,6.352,6.207,9.112c0.484,0.568,3.63,3.122,3.63,3.891c0,5.494,1.352,11.209,2.172,16.609
	c1.13,7.455,1.068,15.078,2.437,22.484c1.091,5.902,3.128,12.264,7.005,16.906c4.711,5.635,10.24,5.064,15.726,0.434
	c5.871-4.957,5.299-12.99,7.256-19.805c2.139-7.434,6.365-14.359,8.295-21.689c0.949-3.617,2.071-7.197,3.354-10.711
	c0.359-0.982,0.822-3.516,1.645-4.229C92.944,62.456,100.546,55.587,99.92,47.75z M64.479,46.978
	c0.791-0.026,1.68,0.316,2.715,1.172c0.586,0.483,4.155,6.317,2.868,6.972c-3.079,1.561-8.34-0.032-11.116-1.611
	C59.537,51.012,61.492,47.076,64.479,46.978z M39.183,45.507c-1.648-2.283-0.135-3.247,1.841-4.532
	c2.61-1.698,4.133-2.958,5.857-5.572c2.328-3.544,2.494-8.253,5.306-11.479c0.375-0.43,0.939-0.782,1.564-1.031
	c6.626-2.644,2.557,9.473,1.595,12.192c-1.163,3.301-2.599,6.858-5.13,9.336C47.501,47.079,42.025,49.439,39.183,45.507z
	 M67.836,99.262c-1.83,6.371,1.167,21.012-6.463,23.049c-7.554,2.018-9.207-6.494-10.173-11.791
	c-1.466-8.008-2.526-16.01-2.745-24.17c-0.155-5.598,0.151-11.297,0.988-16.83c0.326-2.156,5.212-5.366,6.824-6.187
	c1.568-0.799,5.873,0.115,7.612,0.359c2.099,0.293,4.222,0.787,6.074,1.882c3.313,1.961,4.99,5.416,5.743,9.125
	C77.341,82.824,70.074,91.463,67.836,99.262z M90.831,49.15c-2.841,3.933-8.32,1.572-11.035-1.086
	c-2.53-2.478-3.968-6.035-5.131-9.334c-0.962-2.722-5.028-14.835,1.595-12.194c0.627,0.252,1.192,0.604,1.566,1.034
	c2.813,3.225,2.977,7.934,5.307,11.478c1.726,2.615,3.247,3.876,5.857,5.572C90.965,45.905,92.479,46.869,90.831,49.15z"/>
</svg>
