<?xml version="1.0" encoding="utf-8"?>
<!-- Generator: Adobe Illustrator 15.1.0, SVG Export Plug-In . SVG Version: 6.00 Build 0)  -->
<!DOCTYPE svg PUBLIC "-//W3C//DTD SVG 1.1//EN" "http://www.w3.org/Graphics/SVG/1.1/DTD/svg11.dtd">
<svg version="1.1" id="Layer_1" xmlns="http://www.w3.org/2000/svg" xmlns:xlink="http://www.w3.org/1999/xlink" x="0px" y="0px"
	 width="128px" height="128px" viewBox="0 0 128 128" enable-background="new 0 0 128 128" xml:space="preserve">
<path fill="none" stroke="#010101" stroke-miterlimit="10" d="M99.962,47.814c-0.475-5.963-7.012-6.751-7.381-12.179
	c-0.393-5.805,1.199-12.523-0.002-18.192C87.311-7.371,49.38,3.264,49.38,3.264c-6.128,3.541-9.158,11.246-11.135,17.741
	c-1.474,4.841-1.487,12.522-4.181,17.273c-0.439,0.777-0.951,1.473-1.552,2.066c-1.362,1.349-3.056,1.679-3.897,3.583
	c-1.31,2.958,0.125,7.432,1.401,10.14c1.56,3.303,3.856,6.351,6.206,9.109c0.485,0.568,3.631,3.123,3.631,3.892
	c0,5.492,1.352,11.206,2.171,16.607c1.129,7.453,1.067,15.075,2.436,22.479c1.091,5.902,3.128,12.262,7.004,16.903
	c4.71,5.636,10.239,5.065,15.724,0.436c5.87-4.957,5.298-12.988,7.255-19.803c2.137-7.433,6.365-14.357,8.293-21.686
	c0.949-3.618,2.072-7.197,3.354-10.709c0.359-0.985,0.822-3.517,1.645-4.229C92.987,62.519,100.589,55.65,99.962,47.814z
	 M64.527,47.042c0.791-0.026,1.678,0.316,2.714,1.172c0.586,0.483,4.154,6.316,2.868,6.971c-3.08,1.561-8.339-0.032-11.115-1.611
	C59.586,51.076,61.541,47.141,64.527,47.042z M39.234,45.571c-1.647-2.283-0.135-3.246,1.841-4.531
	c2.609-1.698,4.132-2.957,5.856-5.572c2.328-3.544,2.494-8.252,5.305-11.477c0.375-0.43,0.939-0.782,1.564-1.032
	c6.625-2.642,2.558,9.473,1.595,12.191c-1.162,3.3-2.599,6.857-5.13,9.335C47.552,47.143,42.077,49.504,39.234,45.571z
	 M67.884,99.318c-1.831,6.372,1.167,21.009-6.463,23.045c-7.552,2.017-9.205-6.493-10.172-11.789
	c-1.466-8.007-2.526-16.007-2.744-24.166c-0.155-5.596,0.151-11.295,0.988-16.827c0.326-2.157,5.211-5.365,6.823-6.186
	c1.569-0.799,5.873,0.115,7.611,0.358c2.099,0.293,4.222,0.787,6.073,1.881c3.313,1.963,4.988,5.416,5.742,9.125
	C77.388,82.882,70.121,91.521,67.884,99.318z M90.876,49.215c-2.842,3.932-8.319,1.572-11.034-1.086
	c-2.53-2.477-3.967-6.033-5.13-9.333c-0.962-2.722-5.028-14.834,1.595-12.192c0.627,0.251,1.191,0.603,1.566,1.033
	c2.813,3.224,2.975,7.933,5.305,11.475c1.727,2.615,3.247,3.876,5.857,5.572C91.011,45.97,92.524,46.934,90.876,49.215z"/>
</svg>
