<?xml version="1.0" encoding="utf-8"?>
<!-- Generator: Adobe Illustrator 15.1.0, SVG Export Plug-In . SVG Version: 6.00 Build 0)  -->
<!DOCTYPE svg PUBLIC "-//W3C//DTD SVG 1.1//EN" "http://www.w3.org/Graphics/SVG/1.1/DTD/svg11.dtd">
<svg version="1.1" id="Layer_1" xmlns="http://www.w3.org/2000/svg" xmlns:xlink="http://www.w3.org/1999/xlink" x="0px" y="0px"
	 width="128px" height="128px" viewBox="0 0 128 128" enable-background="new 0 0 128 128" xml:space="preserve">
<g>
	<path fill-rule="evenodd" clip-rule="evenodd" fill="#FFFFFF" stroke="#000000" stroke-miterlimit="10" d="M65.342,24.597
		c15.341,2.527,26.01,9.727,25.888,27.719c-7.056,2.772-17.301,2.876-27.195,2.876c-9.884,0-20.165-0.038-27.196-2.876
		C36.65,34.345,47.01,26.924,62.727,24.859c0-1.308,0-2.615,0-3.923c-1.917-1.808-4.223-2.463-3.661-6.275
		c0.971-6.591,10.958-4.12,9.675,2.092c-0.425,2.054-1.495,2.461-3.399,3.922C65.342,21.982,65.342,23.29,65.342,24.597z"/>
	<path fill-rule="evenodd" clip-rule="evenodd" fill="#FFFFFF" stroke="#000000" stroke-miterlimit="10" d="M61.419,107.49
		c8.457-0.402,20.232,0.025,29.026,1.57c3.306,0.58,6.816,1.158,6.799,3.139c-0.026,2.963-9.922,3.762-14.121,4.184
		c-11.655,1.164-24.242,1.131-35.563,0c-3.735-0.375-13.811-1.137-14.121-3.924c-0.353-3.168,8.775-3.832,12.029-4.184
		C51.038,107.674,55.89,107.754,61.419,107.49z"/>
	<path fill-rule="evenodd" clip-rule="evenodd" fill="#FFFFFF" stroke="#000000" stroke-miterlimit="10" d="M89.138,77.158
		c-14.173,1.404-33.496,2.027-48.376,0c-2.705,10.455-5.197,21.127-7.583,31.902c1.006-10.24,3.313-21.443,4.969-31.902
		c-7.19-1.633-14.456-2.344-21.704-4.707c-6.083-1.986-20.378-7.976-13.336-16.213c6.121-7.159,20.13-8.619,31.118-10.982
		c-0.489,3.1-1.063,7.458-0.785,10.459c7.835,3.378,19.444,3.399,30.595,3.399c11.02,0,22.542-0.28,30.594-3.138
		c0.542-3.435-0.035-7.734-1.046-10.459c9.868,1.093,21.875,3.609,28.764,8.629c1.851,1.348,4.344,3.856,4.446,6.276
		c0.265,6.29-8.925,9.627-14.383,11.506c-6.751,2.322-13.552,3.75-20.918,4.707c1.68,10.096,4.609,22.342,5.752,31.902
		C94.663,97.957,91.738,87.719,89.138,77.158z"/>
</g>
</svg>
