<?xml version="1.0" encoding="utf-8"?>
<!-- Generator: Adobe Illustrator 15.1.0, SVG Export Plug-In . SVG Version: 6.00 Build 0)  -->
<!DOCTYPE svg PUBLIC "-//W3C//DTD SVG 1.1//EN" "http://www.w3.org/Graphics/SVG/1.1/DTD/svg11.dtd">
<svg version="1.1" id="Layer_1" xmlns="http://www.w3.org/2000/svg" xmlns:xlink="http://www.w3.org/1999/xlink" x="0px" y="0px"
	 width="128px" height="128px" viewBox="0 0 128 128" enable-background="new 0 0 128 128" xml:space="preserve">
<g>
	<circle fill="#010101" cx="63.88" cy="15.379" r="4.966"/>
	<rect x="62.665" y="16.757" fill="#010101" width="2.625" height="9.184"/>
	<g>
		<line fill="none" x1="39.521" y1="75.541" x2="32.298" y2="111.653"/>
		<polygon fill="#010101" points="40.807,75.797 32.298,111.653 38.235,75.28 		"/>
	</g>
	<g>
		<line fill="none" x1="89.744" y1="74.336" x2="98.171" y2="111.653"/>
		<polygon fill="#010101" points="91.024,74.046 98.171,111.653 88.465,74.625 		"/>
	</g>
	<ellipse fill="#010101" stroke="#010101" stroke-miterlimit="10" cx="65.289" cy="112.256" rx="31.489" ry="4.213"/>
	<path fill="#010101" d="M91.336,51.598c0.097-0.653-0.006-1.489-0.006-2.053c0-13.761-12.269-24.915-27.404-24.915
		c-1.473,0-3.042,0.28-4.496,0.486c-1.455,0.205-2.899,0.479-4.309,0.871c-2.772,0.772-5.345,2.011-7.646,3.612
		c-2.309,1.604-4.38,3.522-6.083,5.662c-1.708,2.145-2.983,4.54-3.706,7.105c-0.78,2.778-0.929,5.651-1.001,8.502
		c-0.006,0.265-0.143,0.834-0.025,1.071c0.48,0.96,2.023,1.256,3.033,1.488c1.313,0.299,2.68,0.427,4.019,0.603
		c3.987,0.522,7.983,0.767,12.008,0.926c2.733,0.107,5.469,0.153,8.207,0.153c4.467,0,8.963-0.077,13.418-0.414
		c3.283-0.247,6.498-0.617,9.745-1.103c0.591-0.088,1.177-0.174,1.744-0.35c0.709-0.217,2.059-0.436,2.374-1.169
		C91.269,51.935,91.307,51.772,91.336,51.598z"/>
	<path fill="#010101" d="M93.634,45c0.77,2.457,1.191,5.047,1.191,7.729c0,0.637,0.118,1.581,0.008,2.319
		c-0.029,0.195-0.076,0.381-0.144,0.538c-0.354,0.827-1.88,1.073-2.68,1.319c-0.639,0.197-1.301,0.295-1.964,0.394
		c-3.665,0.549-7.29,0.967-10.993,1.246c-5.023,0.379-10.098,0.465-15.133,0.465c-3.089,0-6.175-0.051-9.26-0.173
		c-4.537-0.179-9.046-0.456-13.543-1.045c-1.508-0.198-3.051-0.343-4.532-0.68c-1.137-0.262-2.878-0.594-3.418-1.677
		c-0.134-0.269,0.019-0.91,0.028-1.21c0.079-3.091,0.242-6.205,1.038-9.225C14.452,47.994,1,53.884,1,60.66
		c0,9.808,28.172,17.76,62.926,17.76c34.753,0,62.926-7.952,62.926-17.76C126.853,53.884,113.403,47.995,93.634,45z"/>
</g>
</svg>
