<?xml version="1.0" encoding="utf-8"?>
<!-- Generator: Adobe Illustrator 15.1.0, SVG Export Plug-In . SVG Version: 6.00 Build 0)  -->
<!DOCTYPE svg PUBLIC "-//W3C//DTD SVG 1.1//EN" "http://www.w3.org/Graphics/SVG/1.1/DTD/svg11.dtd">
<svg version="1.1" id="Layer_1" xmlns="http://www.w3.org/2000/svg" xmlns:xlink="http://www.w3.org/1999/xlink" x="0px" y="0px"
	 width="128px" height="128px" viewBox="0 0 128 128" enable-background="new 0 0 128 128" xml:space="preserve">
<path fill="#010101" d="M63.945,1.107C29.181,1.107,1,29.291,1,64.054S29.181,127,63.945,127c34.765,0,62.946-28.184,62.946-62.946
	S98.71,1.107,63.945,1.107z M13.771,52.829c0-3.801,9.803-18.142,21.894-18.142c12.092,0,21.895,14.341,21.895,18.142
	c0,3.8-9.803-4.379-21.895-4.379C23.574,48.45,13.771,56.629,13.771,52.829z M64.859,114.228c-24.186,0-43.79-21.894-43.79-36.49
	s19.604,1.823,43.79,1.823c24.184,0,43.788-16.42,43.788-1.823S89.043,114.228,64.859,114.228z M95.874,50.274
	c-12.09,0-21.894,8.18-21.894,4.379c0-3.8,9.804-18.141,21.894-18.141c12.092,0,21.894,14.341,21.894,18.141
	C117.768,58.454,107.966,50.274,95.874,50.274z"/>
</svg>
