<?xml version="1.0" encoding="utf-8"?>
<!-- Generator: Adobe Illustrator 18.1.1, SVG Export Plug-In . SVG Version: 6.00 Build 0)  -->
<svg version="1.1" id="Your_Icon" xmlns="http://www.w3.org/2000/svg" xmlns:xlink="http://www.w3.org/1999/xlink" x="0px" y="0px"
	 viewBox="-232.6 352.4 61.9 62" enable-background="new -232.6 352.4 61.9 62" xml:space="preserve">
<path d="M-231.4,371c-0.7,0.1-1.2,0.7-1.2,1.5v1.9c0,0.8,0.7,1.5,1.5,1.5h14.9c0.2,0.4,0.4,1,0.7,1.6c0.5,1.3,1.2,2.9,1.6,4.2
	c0.3,0.9,0.6,1.6,0.7,2c0.1,0.5,0.5,1,0.8,1.3c0.4,0.3,0.8,0.5,1.2,0.6c0.8,0.3,1.6,0.3,2.1,0.3c0.3,0,0.5,0,0.6,0h14.9v0
	c3.2,8.5,6.5,19.4,6.5,19.4h13.6c8.5,0-3.8-14.2-4.9-20.1c-1.1-5.6,3.7-9.1,4.2-9.4h0.1c0.8,0,1.5-0.7,1.5-1.5v-1.9
	c0-0.8-0.7-1.5-1.5-1.5h-0.1c0.6-0.2,1-0.8,1-1.4v-6.6c0-0.8-0.7-1.5-1.5-1.5h-56.3c-0.8,0-1.5,0.7-1.5,1.5v6.6
	C-232.6,370.3-232.1,370.9-231.4,371z M-214.1,375.9h11.4c0.9,1.1,0.4,3.1-0.2,3.9c-0.6,0.9-3.1,3.9,0.2,2c2.8-1.7,2.3-5,2.1-5.9
	h1.6c0,0,0.1,0,0.1,0c0.9,0.1,2.5,3.6,4.3,8.2c0,0-15.4,0-15.8-0.1c-0.4-0.1-0.8-0.2-0.9-0.4c-0.1-0.1-0.2-0.2-0.2-0.3
	c-0.1-0.5-0.4-1.3-0.7-2.2c-0.3-0.9-0.7-1.9-1.1-2.9C-213.6,377.3-213.9,376.5-214.1,375.9z"/>
</svg>
