<?xml version="1.0" encoding="utf-8"?>
<!-- Generator: Adobe Illustrator 18.1.1, SVG Export Plug-In . SVG Version: 6.00 Build 0)  -->
<svg version="1.1" id="Calque_3" xmlns="http://www.w3.org/2000/svg" xmlns:xlink="http://www.w3.org/1999/xlink" x="0px" y="0px"
	 viewBox="-235.3 347 63.5 69.6" enable-background="new -235.3 347 63.5 69.6" xml:space="preserve">
<path d="M-178.2,393.7v6.4l0,0c0,0.7-0.5,1.6-1.1,2l-9.7,5.4c-0.6,0.3-1.2,1.1-1.3,1.8l-0.5,4.6c-0.1,0.7-0.7,1.3-1.4,1.3
	c-0.7,0-1.3-0.6-1.4-1.3l-0.3-3.5c-0.1-0.7-0.6-1.2-1.2-1c-0.6,0.1-2.3,1-2.4,1.7l-0.4,4.2c-0.1,0.7-0.7,1.3-1.4,1.3
	c-0.7,0-1.3-0.6-1.4-1.3l-0.4-3.9c-0.1-0.7-0.7-1.3-1.4-1.2h-1.8c-0.7,0-1.4,0.5-1.4,1.2l-0.4,3.9c-0.1,0.7-0.7,1.3-1.4,1.3
	c-0.7,0-1.3-0.6-1.4-1.3l-0.4-4.2c-0.1-0.7-1.8-1.6-2.4-1.7c-0.6-0.1-1.2,0.3-1.2,1l-0.3,3.5c-0.1,0.7-0.7,1.3-1.4,1.3
	c-0.7,0-1.3-0.6-1.4-1.3l-0.5-4.6c-0.1-0.7-0.7-1.5-1.3-1.8l-9.7-5.4c-0.6-0.4-1.1-1.3-1.1-2v-6.4c0-0.7-0.3-1.8-0.7-2.4
	c0,0-5.8-9.7-5.8-16.2c0-15.9,14.2-28.8,31.8-28.8c17.5,0,31.7,12.9,31.7,28.8c0,6.5-5.8,16.2-5.8,16.2
	C-177.9,391.9-178.2,393-178.2,393.7z M-219.2,380.3c-4.6,1.2-7.5,5.5-6.5,9.4c1.1,3.9,5.2,4.2,9.8,3c4.6-1.2,8.1-3.5,7-7.5
	C-210,381.3-214.6,379.1-219.2,380.3z M-198.2,385.3c-1.1,3.9,2.4,6.2,7,7.5c4.6,1.2,8.7,1,9.8-3c1.1-4-1.8-8.2-6.5-9.4
	C-192.5,379.1-197.1,381.3-198.2,385.3z M-202.8,389.3c-0.4-1.5-1.2-1.5-1.6,0l-3.2,10.9c-0.4,1.5,0.3,2.3,1.6,1.7
	c1.3-0.6,3.5-0.6,4.8,0c1.3,0.6,2-0.2,1.6-1.7L-202.8,389.3z"/>
<text transform="matrix(1 0 0 1 -312.1151 422.3193)" font-family="'HelveticaNeue-Bold'" font-size="3.7037">Created by Andrew Forrester</text>
<text transform="matrix(1 0 0 1 -312.1151 426.0234)" font-family="'HelveticaNeue-Bold'" font-size="3.7037">from the Noun Project</text>
</svg>
