<?xml version="1.0" encoding="utf-8"?>
<!-- Generator: Adobe Illustrator 18.1.1, SVG Export Plug-In . SVG Version: 6.00 Build 0)  -->
<svg version="1.1" id="Layer_1" xmlns="http://www.w3.org/2000/svg" xmlns:xlink="http://www.w3.org/1999/xlink" x="0px" y="0px"
	 viewBox="-300.1 347 74 74" enable-background="new -300.1 347 74 74" xml:space="preserve">
<g>
	<g>
		<path d="M-270.1,414.3c0.3,1,0.5,1.9,0.8,2.7h12.4c0.3-0.9,0.5-1.8,0.8-2.7H-270.1z"/>
	</g>
	<g>
		<path d="M-251.9,397.3c2.3-12,3-25.6-2.7-37.7h-17c-5.7,12.1-5,25.7-2.7,37.7c-1.2,1.7-6.7,7.8-6.7,7.8l1,16h3.3l2.5-10.4l2.8-1.2
			c0.3,1.2,0.6,2.3,0.9,3.4h14.8c0.3-1.1,0.6-2.2,0.9-3.4l2.8,1.2l2.5,10.4h3.3l1-16C-245.2,405.1-250.7,399-251.9,397.3z
			 M-263.1,369.1c2,0,3.6,1.6,3.6,3.6c0,1.9-1.6,3.5-3.6,3.6c-2,0-3.6-1.6-3.6-3.6C-266.7,370.7-265.1,369.2-263.1,369.1z"/>
	</g>
	<g id="_x3C_Path_x3E_">
		<path d="M-263.1,358.2L-263.1,358.2h7.8c-2-3.7-7.6-11.2-7.8-11.2c-0.2,0-5.8,7.5-7.8,11.2H-263.1z"/>
	</g>
</g>
<text transform="matrix(1 0 0 1 -248.2754 431.4443)" font-family="'HelveticaNeue-Bold'" font-size="3.7037">Created by Antonis Makriyannis</text>
<text transform="matrix(1 0 0 1 -248.2754 435.1484)" font-family="'HelveticaNeue-Bold'" font-size="3.7037">from the Noun Project</text>
</svg>
